<svg width="37" height="31" viewBox="0 0 37 31" fill="none" xmlns="http://www.w3.org/2000/svg">
<path d="M10.6957 1H4.36779C3.4941 1 2.78583 1.59695 2.78583 2.33333V13C2.78583 13.7364 3.4941 14.3333 4.36779 14.3333H10.6957C11.5694 14.3333 12.2776 13.7364 12.2776 13V2.33333C12.2776 1.59695 11.5694 1 10.6957 1Z" stroke="white" stroke-width="2" stroke-linecap="round" stroke-linejoin="round"/>
<path d="M26.1875 2.21212C25.3376 2.21212 24.496 2.35321 23.7108 2.62732C22.9257 2.90144 22.2122 3.30322 21.6113 3.80972C21.0103 4.31622 20.5336 4.91753 20.2084 5.5793C19.8832 6.24108 19.7158 6.95037 19.7158 7.66667C19.7158 8.38297 19.8832 9.09225 20.2084 9.75403C20.5336 10.4158 21.0103 11.0171 21.6113 11.5236C22.2122 12.0301 22.9257 12.4319 23.7108 12.706C24.496 12.9801 25.3376 13.1212 26.1875 13.1212C27.9039 13.1212 29.5499 12.5465 30.7636 11.5236C31.9773 10.5007 32.6591 9.1133 32.6591 7.66667C32.6591 6.22003 31.9773 4.83265 30.7636 3.80972C29.5499 2.78679 27.9039 2.21212 26.1875 2.21212ZM18.2776 7.66667C18.2776 3.98485 21.8191 1 26.1875 1C30.5558 1 34.0973 3.98485 34.0973 7.66667C34.0973 11.3485 30.5558 14.3333 26.1875 14.3333C21.8191 14.3333 18.2776 11.3485 18.2776 7.66667Z" fill="white"/>
<path d="M8.72004 29.6666C7.95472 29.6666 7.23492 29.5442 6.56065 29.2995C5.88679 29.0544 5.3005 28.7218 4.80177 28.3018C4.30304 27.8822 3.90828 27.3886 3.61749 26.821C3.3267 26.2534 3.1813 25.6469 3.1813 25.0015C3.1813 24.3564 3.32649 23.7498 3.61687 23.1815C3.90766 22.6135 4.30222 22.1194 4.80054 21.699C5.29845 21.2787 5.88413 20.946 6.55757 20.7009C7.23102 20.4558 7.95061 20.3333 8.71634 20.3333C9.48167 20.3333 10.2015 20.4556 10.8757 20.7004C11.5496 20.9454 12.1359 21.278 12.6346 21.698C13.1333 22.1176 13.5281 22.6113 13.8189 23.1789C14.1097 23.7465 14.2551 24.353 14.2551 24.9984C14.2551 25.6434 14.1099 26.2501 13.8195 26.8184C13.5287 27.3863 13.1342 27.8805 12.6358 28.3008C12.1379 28.7212 11.5523 29.0539 10.8788 29.299C10.2054 29.544 9.48577 29.6666 8.72004 29.6666Z" fill="white"/>
<g clip-path="url(#clip0_302_685)">
<path d="M24.6003 19.3333H20.7379C20.6099 19.3333 20.4871 19.3761 20.3965 19.4524C20.306 19.5288 20.2551 19.6323 20.2551 19.7402V22.9956C20.2549 23.0762 20.2831 23.155 20.3362 23.222C20.3892 23.2891 20.4647 23.3413 20.553 23.3722C20.6414 23.4031 20.7386 23.4111 20.8323 23.3954C20.9261 23.3796 21.0122 23.3407 21.0797 23.2837L22.6691 21.9433L33.9146 31.4221L34.5983 30.8459L23.3518 21.3679L24.9422 20.0283C25.0099 19.9714 25.056 19.8988 25.0747 19.8198C25.0934 19.7407 25.0838 19.6588 25.0472 19.5844C25.0106 19.5099 24.9486 19.4463 24.869 19.4016C24.7895 19.3569 24.696 19.3331 24.6003 19.3333Z" fill="white"/>
</g>
<defs>
<clipPath id="clip0_302_685">
<rect width="13.4467" height="11.3333" fill="white" transform="translate(20.2551 19.3333)"/>
</clipPath>
</defs>
</svg>
