<?xml version="1.0" encoding="UTF-8"?>
<svg xmlns="http://www.w3.org/2000/svg" viewBox="0 0 1500 1500">
  <defs>
    <style>
      .cls-1 {
        isolation: isolate;
      }

      .cls-2, .cls-3 {
        fill: #5bede3;
      }

      .cls-2, .cls-3, .cls-4, .cls-5, .cls-6 {
        stroke-width: 0px;
      }

      .cls-2, .cls-7 {
        mix-blend-mode: overlay;
      }

      .cls-4, .cls-5 {
        fill: #0fa99a;
      }

      .cls-5 {
        opacity: .5;
      }

      .cls-6 {
        fill: #2ad7d2;
      }
    </style>
  </defs>
  <g class="cls-1">
    <g id="Calque_1" data-name="Calque 1">
      <g>
        <g>
          <path class="cls-6" d="M1191.7,671.41c0,75.05-30.4,142.98-79.58,192.17-49.19,49.19-117.13,79.62-192.17,79.62h-149.93c-75.01,0-142.9,30.4-192.05,79.54-49.15,49.15-79.54,117.05-79.54,192.05v-271.59c0-75.09,30.4-143.02,79.58-192.21,49.19-49.19,117.13-79.58,192.17-79.58h421.53Z"/>
          <path class="cls-2" d="M1191.71,659.04c0,75.05-30.4,142.98-79.58,192.17-4.98,4.98-10.16,9.8-15.54,14.37,45.93-48.67,74.04-114.28,74.04-186.47h-421.53c-67.42,0-129.09,24.53-176.59,65.21,1.77-1.93,3.61-3.81,5.5-5.7,49.19-49.19,117.13-79.58,192.17-79.58h421.53Z"/>
          <path class="cls-4" d="M1191.71,621.58h-539.98c-11.8,0-23.41-.8-34.81-2.21-61.11-7.83-115.92-35.98-157.36-77.41-49.19-49.19-79.58-117.13-79.58-192.21h539.98c75.05,0,142.98,30.44,192.17,79.62,16.74,16.74,31.32,35.66,43.24,56.29,23.13,39.99,36.34,86.41,36.34,135.92Z"/>
          <path class="cls-6" d="M1191.71,621.58h-539.98c-11.8,0-23.41-.8-34.81-2.21-61.11-7.83-115.92-35.98-157.36-77.41-49.19-49.19-79.58-117.13-79.58-192.21h539.98c75.05,0,142.98,30.44,192.17,79.62,16.74,16.74,31.32,35.66,43.24,56.29,23.13,39.99,36.34,86.41,36.34,135.92Z"/>
          <g class="cls-7">
            <path class="cls-3" d="M1191.71,621.58h-19.15c-2.89-42.52-15.5-82.39-35.74-117.37-11.93-20.64-26.5-39.55-43.24-56.29-49.19-49.19-117.13-79.62-192.17-79.62H380.63c-.44-6.1-.64-12.33-.64-18.55h539.98c75.05,0,142.98,30.44,192.17,79.62,16.74,16.74,31.32,35.66,43.24,56.29,23.13,39.99,36.34,86.41,36.34,135.92Z"/>
          </g>
          <path class="cls-4" d="M770.18,930.82v149.73c0,3.01-.04,6.02-.16,8.99-1.28,40.47-11.48,78.74-28.63,112.87-13.13,26.14-30.32,49.83-50.79,70.31-49.19,49.19-117.13,79.62-192.17,79.62v-149.93c0-75.01,30.4-142.9,79.54-192.05,49.15-49.15,117.05-79.54,192.05-79.54h.16Z"/>
          <path class="cls-5" d="M770.19,930.84v39.15h-.16c-75.01,0-142.9,30.4-192.05,79.54-49.15,49.15-79.54,117.05-79.54,192.05v-39.15c0-75.01,30.4-142.9,79.54-192.05,49.15-49.15,117.05-79.54,192.05-79.54h.16Z"/>
        </g>
        <rect class="cls-4" x="767.85" y="621.36" width="1.97" height=".2"/>
      </g>
    </g>
  </g>
</svg>